<?xml version="1.0" encoding="utf-8"?>
<!-- Generator: Adobe Illustrator 25.3.0, SVG Export Plug-In . SVG Version: 6.00 Build 0)  -->
<svg version="1.1" id="Capa_1" xmlns="http://www.w3.org/2000/svg" xmlns:xlink="http://www.w3.org/1999/xlink" x="0px" y="0px"
	 viewBox="0 0 1267 1280" style="enable-background:new 0 0 1267 1280;" xml:space="preserve">
<path d="M925,0.6C830.5,9.1,752.6,50.5,694.9,123c-30.1,37.8-53.3,89.2-62.4,138.1c-5,27.1-4.8,21.4-5.2,179.6L626.9,589H313.5H0
	v345.5V1280h409.5H819V934.5V589h-45.1h-45l0.4-143.8c0.4-155.5,0.2-149.1,5.8-174.2c4.8-21.4,17.1-50.4,28.9-68.5
	c20.3-30.9,46.8-55.7,78.5-73.2c32.1-17.8,65.9-26.4,104-26.5c59.5-0.1,111.7,21.4,154.1,63.7c32.7,32.6,53,71.6,60.9,117
	c3,17.4,3.5,39.1,3.5,171.7V589h51h51.1l-0.3-148.3c-0.3-135.3-0.5-149.2-2.1-160.2c-7.9-53.8-23.6-95.7-51.3-137.5
	c-12.2-18.3-24-32.7-40.4-49c-51-51.1-113.3-81.6-186.5-91.5C975,0.9,935-0.3,925,0.6z"/>
</svg>
