<?xml version="1.0" encoding="utf-8"?>
<!-- Generator: Adobe Illustrator 25.3.0, SVG Export Plug-In . SVG Version: 6.00 Build 0)  -->
<svg version="1.1" baseProfile="tiny" id="Capa_1" xmlns="http://www.w3.org/2000/svg" xmlns:xlink="http://www.w3.org/1999/xlink"
	 x="0px" y="0px" viewBox="0 0 896 1280" overflow="visible" xml:space="preserve">
<path d="M422.2,1.1c-106.6,9.4-201.5,63.3-263.4,149.4c-11.3,15.8-20.6,31.5-30.3,51c-14.2,28.9-23.2,55-29.5,85.5
	c-7.4,36.1-8,49.7-8,174.1V563H45.5H0v358.5v331.1c0,15.1,12.3,27.4,27.4,27.4H448h424.2c13.1,0,23.8-10.6,23.8-23.8V921.5V563
	h-42.5H811V453.7c0-64.1-0.4-114.1-1-121.2c-6.2-74.5-32.4-140.2-79.4-199c-10.3-12.9-40.3-42.9-53.1-53.1
	C622.1,36.3,563,11.3,493,2.4C478.1,0.6,436.8-0.2,422.2,1.1z M465.5,142c61.8,5,113.5,31.4,153.5,78.5
	c20.3,23.9,36.2,55.1,43.9,86.5c6.5,26.3,6.3,21.7,6.8,144.2l0.5,111.8H451.6H233V452.7c0-117.9,0-118.3,5.1-141
	c5-22.8,17.7-52.6,30.4-71.7c31.3-46.8,78.6-80,132-92.5C424.4,141.9,444,140.3,465.5,142z"/>
</svg>
